<svg xmlns="http://www.w3.org/2000/svg" viewBox="0 0 880 316" width="880" height="316" font-family="Inter, -apple-system, 'Segoe UI', Helvetica, Arial, sans-serif">
<rect x="0.5" y="0.5" width="879" height="315" rx="16" fill="#1b1810" stroke="#3a3428"/>
<rect x="40" y="30" width="280" height="250" rx="14" fill="#242017" stroke="#f0b566" stroke-width="2" opacity="1"/>
<text x="180" y="62" font-size="15" font-weight="600" fill="#ede6d6" text-anchor="middle" opacity="1">Server owns the facts</text>
<rect x="64" y="96" width="48" height="76" rx="8" fill="#242017" stroke="#9b927f" stroke-width="2" opacity="1"/>
<rect x="71" y="107.0" width="34" height="14.0" rx="4" fill="#3d3121" opacity="1"/>
<circle cx="97" cy="114.0" r="3" fill="#f0b566"/>
<line x1="77" y1="114.0" x2="87" y2="114.0" stroke="#9b927f" stroke-width="2" stroke-linecap="round" opacity="1"/>
<rect x="71" y="127.0" width="34" height="14.0" rx="4" fill="#3d3121" opacity="1"/>
<circle cx="97" cy="134.0" r="3" fill="#f0b566"/>
<line x1="77" y1="134.0" x2="87" y2="134.0" stroke="#9b927f" stroke-width="2" stroke-linecap="round" opacity="1"/>
<rect x="71" y="147.0" width="34" height="14.0" rx="4" fill="#3d3121" opacity="1"/>
<circle cx="97" cy="154.0" r="3" fill="#f0b566"/>
<line x1="77" y1="154.0" x2="87" y2="154.0" stroke="#9b927f" stroke-width="2" stroke-linecap="round" opacity="1"/>
<rect x="130" y="92" width="170" height="34" rx="10" fill="#3d3121" stroke="#f0b566" stroke-width="1.5" opacity="1"/>
<text x="215" y="114" font-size="13" font-weight="700" fill="#f0b566" text-anchor="middle" opacity="1">Score 3 – 2</text>
<rect x="130" y="138" width="170" height="34" rx="10" fill="#3d3121" stroke="#f0b566" stroke-width="1.5" opacity="1"/>
<text x="215" y="160" font-size="13" font-weight="700" fill="#f0b566" text-anchor="middle" opacity="1">Door: open</text>
<rect x="130" y="184" width="170" height="34" rx="10" fill="#213040" stroke="#7fb3d5" stroke-width="1.5" opacity="1"/>
<text x="215" y="206" font-size="13" font-weight="700" fill="#7fb3d5" text-anchor="middle" opacity="1">Mira's hand</text>
<rect x="560" y="38" width="280" height="70" rx="12" fill="#242017" stroke="#3a3428" stroke-width="1.5" opacity="1"/>
<g opacity="1" fill="#ede6d6"><circle cx="596" cy="75.25" r="6.0"/><path d="M 586.25 94 v -4.5 a 9.75 8.25 0 0 1 19.5 0 v 4.5 z"/></g>
<text x="596" y="58" font-size="11" font-weight="700" fill="#9b927f" text-anchor="middle" opacity="1">Mira</text>
<rect x="639.05" y="61" width="45.9" height="24" rx="12" fill="#242017" stroke="#f0b566" stroke-width="1.5" opacity="1"/>
<text x="662" y="77.5" font-size="11" font-weight="700" fill="#f0b566" text-anchor="middle" opacity="1">3 – 2</text>
<rect x="710.24" y="61" width="39.519999999999996" height="24" rx="12" fill="#242017" stroke="#f0b566" stroke-width="1.5" opacity="1"/>
<text x="730" y="77.5" font-size="11" font-weight="700" fill="#f0b566" text-anchor="middle" opacity="1">open</text>
<rect x="780.24" y="61" width="39.519999999999996" height="24" rx="12" fill="#242017" stroke="#7fb3d5" stroke-width="1.5" opacity="1"/>
<text x="800" y="77.5" font-size="11" font-weight="700" fill="#7fb3d5" text-anchor="middle" opacity="1">hand</text>
<rect x="560" y="118" width="280" height="70" rx="12" fill="#242017" stroke="#3a3428" stroke-width="1.5" opacity="1"/>
<g opacity="1" fill="#ede6d6"><circle cx="596" cy="155.25" r="6.0"/><path d="M 586.25 174 v -4.5 a 9.75 8.25 0 0 1 19.5 0 v 4.5 z"/></g>
<text x="596" y="138" font-size="11" font-weight="700" fill="#9b927f" text-anchor="middle" opacity="1">Kofi</text>
<rect x="639.05" y="141" width="45.9" height="24" rx="12" fill="#242017" stroke="#f0b566" stroke-width="1.5" opacity="1"/>
<text x="662" y="157.5" font-size="11" font-weight="700" fill="#f0b566" text-anchor="middle" opacity="1">3 – 2</text>
<rect x="710.24" y="141" width="39.519999999999996" height="24" rx="12" fill="#242017" stroke="#f0b566" stroke-width="1.5" opacity="1"/>
<text x="730" y="157.5" font-size="11" font-weight="700" fill="#f0b566" text-anchor="middle" opacity="1">open</text>
<rect x="560" y="198" width="280" height="70" rx="12" fill="#242017" stroke="#3a3428" stroke-width="1.5" opacity="1"/>
<g opacity="1" fill="#ede6d6"><circle cx="596" cy="235.25" r="6.0"/><path d="M 586.25 254 v -4.5 a 9.75 8.25 0 0 1 19.5 0 v 4.5 z"/></g>
<text x="596" y="218" font-size="11" font-weight="700" fill="#9b927f" text-anchor="middle" opacity="1">Sol</text>
<rect x="639.05" y="221" width="45.9" height="24" rx="12" fill="#242017" stroke="#f0b566" stroke-width="1.5" opacity="1"/>
<text x="662" y="237.5" font-size="11" font-weight="700" fill="#f0b566" text-anchor="middle" opacity="1">3 – 2</text>
<rect x="710.24" y="221" width="39.519999999999996" height="24" rx="12" fill="#242017" stroke="#f0b566" stroke-width="1.5" opacity="1"/>
<text x="730" y="237.5" font-size="11" font-weight="700" fill="#f0b566" text-anchor="middle" opacity="1">open</text>
<line x1="334" y1="150" x2="542" y2="150" stroke="#f0b566" stroke-width="2.5" stroke-linecap="round" opacity="1"/>
<path d="M 539 144 L 548 150 L 539 156" fill="none" stroke="#f0b566" stroke-width="2.5" stroke-linecap="round" stroke-linejoin="round"/>
<text x="441" y="136" font-size="12" font-weight="700" fill="#f0b566" text-anchor="middle" opacity="1">sends each fact</text>
<text x="441" y="172" font-size="12" font-weight="600" fill="#9b927f" text-anchor="middle" opacity="1">to who may see it</text>
<text x="440" y="300" font-size="12" font-weight="500" fill="#9b927f" text-anchor="middle" opacity="1">shared facts go to everyone; a private fact only to its owner</text>
</svg>
