<svg xmlns="http://www.w3.org/2000/svg" viewBox="0 0 880 290" width="880" height="290" font-family="Inter, -apple-system, 'Segoe UI', Helvetica, Arial, sans-serif">
<rect x="0.5" y="0.5" width="879" height="289" rx="16" fill="#1b1810" stroke="#3a3428"/>
<rect x="40" y="30" width="380" height="230" rx="14" fill="#242017" stroke="#3a3428" stroke-width="1.5" opacity="1"/>
<text x="64" y="62" font-size="15" font-weight="600" fill="#ede6d6" text-anchor="start" opacity="1">On the shooter's screen</text>
<rect x="460" y="30" width="380" height="230" rx="14" fill="#242017" stroke="#3a3428" stroke-width="1.5" opacity="1"/>
<text x="484" y="62" font-size="15" font-weight="600" fill="#ede6d6" text-anchor="start" opacity="1">On the server, a moment later</text>
<g opacity="1" fill="#f0b566"><circle cx="90" cy="165.0" r="8.0"/><path d="M 77.0 190 v -6.0 a 13.0 11.0 0 0 1 26.0 0 v 6.0 z"/></g>
<line x1="112" y1="168" x2="286" y2="168" stroke="#f0b566" stroke-width="2.5" stroke-linecap="round" opacity="1"/>
<g opacity="1" fill="#ede6d6"><circle cx="300" cy="165.0" r="8.0"/><path d="M 287.0 190 v -6.0 a 13.0 11.0 0 0 1 26.0 0 v 6.0 z"/></g>
<g stroke="#f0b566" stroke-width="2" fill="none" stroke-linecap="round"><circle cx="300" cy="168" r="13"/><line x1="281" y1="168" x2="292" y2="168"/><line x1="308" y1="168" x2="319" y2="168"/><line x1="300" y1="149" x2="300" y2="160"/><line x1="300" y1="176" x2="300" y2="187"/></g>
<text x="230" y="240" font-size="12" font-weight="500" fill="#9b927f" text-anchor="middle" opacity="1">the target is in the crosshair</text>
<g opacity="1" fill="#f0b566"><circle cx="510" cy="165.0" r="8.0"/><path d="M 497.0 190 v -6.0 a 13.0 11.0 0 0 1 26.0 0 v 6.0 z"/></g>
<line x1="532" y1="168" x2="706" y2="168" stroke="#f0b566" stroke-width="2.5" stroke-linecap="round" opacity="1"/>
<g opacity="0.35" fill="#ede6d6"><circle cx="720" cy="165" r="8"/><path d="M 707 190 v -6 a 13 11 0 0 1 26 0 v 6 z"/></g>
<circle cx="738" cy="140" r="10" fill="#8bc48a"/><path d="M 734.5 140 l 2.5 2.6 l 4.5 -5" fill="none" stroke="#1b1810" stroke-width="2" stroke-linecap="round" stroke-linejoin="round"/>
<path d="M 744 196 Q 772 206 790 196" fill="none" stroke="#9b927f" stroke-width="2" stroke-dasharray="3 4"/>
<g opacity="1" fill="#ede6d6"><circle cx="812" cy="165.0" r="8.0"/><path d="M 799.0 190 v -6.0 a 13.0 11.0 0 0 1 26.0 0 v 6.0 z"/></g>
<text x="718" y="222" font-size="11" font-weight="600" fill="#9b927f" text-anchor="middle" opacity="1">where they were</text>
<text x="812" y="222" font-size="11" font-weight="600" fill="#9b927f" text-anchor="middle" opacity="1">now</text>
<text x="650" y="246" font-size="12" font-weight="600" fill="#8bc48a" text-anchor="middle" opacity="1">checked against what the shooter saw: hit</text>
</svg>
