<svg xmlns="http://www.w3.org/2000/svg" viewBox="0 0 880 250" width="880" height="250" font-family="Inter, -apple-system, 'Segoe UI', Helvetica, Arial, sans-serif">
<rect x="0.5" y="0.5" width="879" height="249" rx="16" fill="#1b1810" stroke="#3a3428"/>
<rect x="40" y="30" width="380" height="190" rx="14" fill="#242017" stroke="#3a3428" stroke-width="1.5" opacity="1"/>
<text x="64" y="62" font-size="15" font-weight="600" fill="#ede6d6" text-anchor="start" opacity="1">Clear line</text>
<rect x="460" y="30" width="380" height="190" rx="14" fill="#242017" stroke="#3a3428" stroke-width="1.5" opacity="1"/>
<text x="484" y="62" font-size="15" font-weight="600" fill="#ede6d6" text-anchor="start" opacity="1">Behind cover</text>
<g opacity="1" fill="#f0b566"><circle cx="100" cy="145.0" r="8.0"/><path d="M 87.0 170 v -6.0 a 13.0 11.0 0 0 1 26.0 0 v 6.0 z"/></g>
<line x1="122" y1="148" x2="318" y2="148" stroke="#f0b566" stroke-width="2.5" stroke-linecap="round" opacity="1"/>
<g opacity="1" fill="#ede6d6"><circle cx="340" cy="145.0" r="8.0"/><path d="M 327.0 170 v -6.0 a 13.0 11.0 0 0 1 26.0 0 v 6.0 z"/></g>
<circle cx="358" cy="120" r="10" fill="#8bc48a"/><path d="M 354.5 120 l 2.5 2.6 l 4.5 -5" fill="none" stroke="#1b1810" stroke-width="2" stroke-linecap="round" stroke-linejoin="round"/>
<text x="230" y="204" font-size="13" font-weight="600" fill="#8bc48a" text-anchor="middle" opacity="1">hit</text>
<g opacity="1" fill="#f0b566"><circle cx="520" cy="145.0" r="8.0"/><path d="M 507.0 170 v -6.0 a 13.0 11.0 0 0 1 26.0 0 v 6.0 z"/></g>
<line x1="542" y1="148" x2="640" y2="148" stroke="#f0b566" stroke-width="2.5" stroke-linecap="round" opacity="1"/>
<rect x="642" y="96" width="26" height="96" rx="4" fill="#4a4334" opacity="1"/>
<line x1="644" y1="114" x2="666" y2="114" stroke="#3a3428" stroke-width="1.5" stroke-linecap="round" opacity="1"/>
<line x1="644" y1="132" x2="666" y2="132" stroke="#3a3428" stroke-width="1.5" stroke-linecap="round" opacity="1"/>
<line x1="644" y1="150" x2="666" y2="150" stroke="#3a3428" stroke-width="1.5" stroke-linecap="round" opacity="1"/>
<line x1="644" y1="168" x2="666" y2="168" stroke="#3a3428" stroke-width="1.5" stroke-linecap="round" opacity="1"/>
<g opacity="1" fill="#ede6d6"><circle cx="760" cy="145.0" r="8.0"/><path d="M 747.0 170 v -6.0 a 13.0 11.0 0 0 1 26.0 0 v 6.0 z"/></g>
<circle cx="650" cy="84" r="10" fill="#e07a5f"/><path d="M 647 81 l 6 6 M 653 81 l -6 6" fill="none" stroke="#1b1810" stroke-width="2" stroke-linecap="round"/>
<text x="650" y="204" font-size="13" font-weight="600" fill="#e07a5f" text-anchor="middle" opacity="1">the wall stops the shot</text>
</svg>
