<svg xmlns="http://www.w3.org/2000/svg" viewBox="0 0 880 260" width="880" height="260" font-family="Inter, -apple-system, 'Segoe UI', Helvetica, Arial, sans-serif">
<rect x="0.5" y="0.5" width="879" height="259" rx="16" fill="#1b1810" stroke="#3a3428"/>
<text x="40" y="40" font-size="15" font-weight="600" fill="#ede6d6" text-anchor="start" opacity="1">Similar ratings first; the range widens while a player waits</text>
<rect x="203.2" y="66" width="325.59999999999997" height="124" rx="12" fill="none" stroke="#f0b566" stroke-width="1.5" stroke-dasharray="5 6" opacity="1"/>
<rect x="292.0" y="78" width="148.0" height="112" rx="10" fill="#3d3121" opacity="1"/>
<text x="366.0" y="96" font-size="12" font-weight="600" fill="#f0b566" text-anchor="middle" opacity="1">at first</text>
<text x="213.2" y="84" font-size="12" font-weight="600" fill="#f0b566" text-anchor="start" opacity="1">after waiting</text>
<g opacity="0.5" fill="#9b927f"><circle cx="99.6" cy="148.0" r="6.4"/><path d="M 89.19999999999999 168 v -4.800000000000001 a 10.4 8.8 0 0 1 20.8 0 v 4.800000000000001 z"/></g>
<g opacity="1" fill="#9b927f"><circle cx="225.4" cy="148.0" r="6.4"/><path d="M 215.0 168 v -4.800000000000001 a 10.4 8.8 0 0 1 20.8 0 v 4.800000000000001 z"/></g>
<g opacity="1" fill="#9b927f"><circle cx="258.7" cy="148.0" r="6.4"/><path d="M 248.29999999999998 168 v -4.800000000000001 a 10.4 8.8 0 0 1 20.8 0 v 4.800000000000001 z"/></g>
<g opacity="1" fill="#ede6d6"><circle cx="314.2" cy="148.0" r="6.4"/><path d="M 303.8 168 v -4.800000000000001 a 10.4 8.8 0 0 1 20.8 0 v 4.800000000000001 z"/></g>
<g opacity="1" fill="#ede6d6"><circle cx="417.8" cy="148.0" r="6.4"/><path d="M 407.40000000000003 168 v -4.800000000000001 a 10.4 8.8 0 0 1 20.8 0 v 4.800000000000001 z"/></g>
<g opacity="1" fill="#9b927f"><circle cx="491.8" cy="148.0" r="6.4"/><path d="M 481.40000000000003 168 v -4.800000000000001 a 10.4 8.8 0 0 1 20.8 0 v 4.800000000000001 z"/></g>
<g opacity="0.5" fill="#9b927f"><circle cx="588.0" cy="148.0" r="6.4"/><path d="M 577.6 168 v -4.800000000000001 a 10.4 8.8 0 0 1 20.8 0 v 4.800000000000001 z"/></g>
<g opacity="0.5" fill="#9b927f"><circle cx="721.2" cy="148.0" r="6.4"/><path d="M 710.8000000000001 168 v -4.800000000000001 a 10.4 8.8 0 0 1 20.8 0 v 4.800000000000001 z"/></g>
<g opacity="0.5" fill="#9b927f"><circle cx="780.4" cy="148.0" r="6.4"/><path d="M 770.0 168 v -4.800000000000001 a 10.4 8.8 0 0 1 20.8 0 v 4.800000000000001 z"/></g>
<g opacity="1" fill="#f0b566"><circle cx="366.0" cy="144.25" r="7.6"/><path d="M 353.65 168 v -5.699999999999999 a 12.35 10.45 0 0 1 24.7 0 v 5.699999999999999 z"/></g>
<text x="366.0" y="132" font-size="12" font-weight="700" fill="#f0b566" text-anchor="middle" opacity="1">you</text>
<line x1="60" y1="196" x2="830" y2="196" stroke="#3a3428" stroke-width="2" stroke-linecap="round" opacity="1"/>
<line x1="70.0" y1="191" x2="70.0" y2="201" stroke="#9b927f" stroke-width="1.5" stroke-linecap="round" opacity="1"/>
<text x="70.0" y="220" font-size="12" font-weight="500" fill="#9b927f" text-anchor="middle" opacity="1">1000</text>
<line x1="218.0" y1="191" x2="218.0" y2="201" stroke="#9b927f" stroke-width="1.5" stroke-linecap="round" opacity="1"/>
<text x="218.0" y="220" font-size="12" font-weight="500" fill="#9b927f" text-anchor="middle" opacity="1">1200</text>
<line x1="366.0" y1="191" x2="366.0" y2="201" stroke="#9b927f" stroke-width="1.5" stroke-linecap="round" opacity="1"/>
<text x="366.0" y="220" font-size="12" font-weight="500" fill="#9b927f" text-anchor="middle" opacity="1">1400</text>
<line x1="514.0" y1="191" x2="514.0" y2="201" stroke="#9b927f" stroke-width="1.5" stroke-linecap="round" opacity="1"/>
<text x="514.0" y="220" font-size="12" font-weight="500" fill="#9b927f" text-anchor="middle" opacity="1">1600</text>
<line x1="662.0" y1="191" x2="662.0" y2="201" stroke="#9b927f" stroke-width="1.5" stroke-linecap="round" opacity="1"/>
<text x="662.0" y="220" font-size="12" font-weight="500" fill="#9b927f" text-anchor="middle" opacity="1">1800</text>
<line x1="810.0" y1="191" x2="810.0" y2="201" stroke="#9b927f" stroke-width="1.5" stroke-linecap="round" opacity="1"/>
<text x="810.0" y="220" font-size="12" font-weight="500" fill="#9b927f" text-anchor="middle" opacity="1">2000</text>
<text x="830" y="245" font-size="12" font-weight="500" fill="#9b927f" text-anchor="end" opacity="1">rating</text>
</svg>
