<svg xmlns="http://www.w3.org/2000/svg" viewBox="0 0 880 280" width="880" height="280" font-family="Inter, -apple-system, 'Segoe UI', Helvetica, Arial, sans-serif">
<rect x="0.5" y="0.5" width="879" height="279" rx="16" fill="#fbf7ef" stroke="#e6dcc8"/>
<text x="40" y="40" font-size="15" font-weight="600" fill="#2a251b" text-anchor="start" opacity="1">Your server checks what a player owns, every time</text>
<rect x="40" y="62" width="230" height="190" rx="14" fill="#ffffff" stroke="#e6dcc8" stroke-width="1.5" opacity="1"/>
<text x="155" y="88" font-size="13" font-weight="500" fill="#8a806b" text-anchor="middle" opacity="1">Player's game</text>
<rect x="78" y="104" width="64" height="110" rx="12" fill="#ffffff" stroke="#8a806b" stroke-width="2" opacity="1"/>
<rect x="85" y="116" width="50" height="82" rx="6" fill="#f6e3c4" opacity="1"/>
<line x1="102.0" y1="206" x2="118.0" y2="206" stroke="#8a806b" stroke-width="2" stroke-linecap="round" opacity="1"/>
<g opacity="1" fill="#d9922e"><circle cx="110" cy="158.0" r="6.4"/><path d="M 99.6 178 v -4.800000000000001 a 10.4 8.8 0 0 1 20.8 0 v 4.800000000000001 z"/></g>
<rect x="160" y="120" width="96" height="44" rx="12" fill="#f6e3c4" stroke="#d9922e" stroke-width="1.5" opacity="1"/>
<text x="208" y="140" font-size="12" font-weight="600" fill="#2a251b" text-anchor="middle" opacity="1">Wear the</text>
<text x="208" y="155" font-size="12" font-weight="600" fill="#2a251b" text-anchor="middle" opacity="1">gold crown</text>
<line x1="282" y1="157" x2="320" y2="157" stroke="#8a806b" stroke-width="2.5" stroke-linecap="round" opacity="1"/>
<path d="M 317 151 L 326 157 L 317 163" fill="none" stroke="#8a806b" stroke-width="2.5" stroke-linecap="round" stroke-linejoin="round"/>
<rect x="338" y="62" width="230" height="190" rx="14" fill="#ffffff" stroke="#e6dcc8" stroke-width="1.5" opacity="1"/>
<text x="453" y="88" font-size="13" font-weight="500" fill="#8a806b" text-anchor="middle" opacity="1">Your game's server</text>
<rect x="372" y="112" width="54" height="84" rx="8" fill="#ffffff" stroke="#8a806b" stroke-width="2" opacity="1"/>
<rect x="379" y="123.0" width="40" height="16.666666666666668" rx="4" fill="#f6e3c4" opacity="1"/>
<circle cx="411" cy="131.33333333333334" r="3" fill="#d9922e"/>
<line x1="385" y1="131.33333333333334" x2="401" y2="131.33333333333334" stroke="#8a806b" stroke-width="2" stroke-linecap="round" opacity="1"/>
<rect x="379" y="145.66666666666666" width="40" height="16.666666666666668" rx="4" fill="#f6e3c4" opacity="1"/>
<circle cx="411" cy="154.0" r="3" fill="#d9922e"/>
<line x1="385" y1="154.0" x2="401" y2="154.0" stroke="#8a806b" stroke-width="2" stroke-linecap="round" opacity="1"/>
<rect x="379" y="168.33333333333334" width="40" height="16.666666666666668" rx="4" fill="#f6e3c4" opacity="1"/>
<circle cx="411" cy="176.66666666666669" r="3" fill="#d9922e"/>
<line x1="385" y1="176.66666666666669" x2="401" y2="176.66666666666669" stroke="#8a806b" stroke-width="2" stroke-linecap="round" opacity="1"/>
<line x1="436" y1="154" x2="464" y2="154" stroke="#d9922e" stroke-width="2" stroke-linecap="round" opacity="1"/>
<path d="M 461 148 L 470 154 L 461 160" fill="none" stroke="#d9922e" stroke-width="2" stroke-linecap="round" stroke-linejoin="round"/>
<rect x="478" y="116" width="74" height="76" rx="10" fill="#f6e3c4" opacity="1"/>
<text x="515" y="138" font-size="11" font-weight="700" fill="#d9922e" text-anchor="middle" opacity="1">inventory</text>
<rect x="488" y="150" width="16" height="16" rx="4" fill="#d9922e" opacity="1"/>
<rect x="508" y="150" width="16" height="16" rx="4" fill="#3f7fb0" opacity="1"/>
<rect x="528" y="150" width="16" height="16" rx="4" fill="#d8cfbd" opacity="1"/>
<text x="453" y="226" font-size="12" font-weight="500" fill="#8a806b" text-anchor="middle" opacity="1">reads it itself</text>
<line x1="580" y1="120" x2="618" y2="104" stroke="#4f9a55" stroke-width="2" stroke-linecap="round" opacity="1"/>
<path d="M 615 98 L 624 104 L 615 110" fill="none" stroke="#4f9a55" stroke-width="2" stroke-linecap="round" stroke-linejoin="round"/>
<line x1="580" y1="194" x2="618" y2="210" stroke="#c8553d" stroke-width="2" stroke-linecap="round" opacity="1"/>
<path d="M 615 204 L 624 210 L 615 216" fill="none" stroke="#c8553d" stroke-width="2" stroke-linecap="round" stroke-linejoin="round"/>
<rect x="636" y="62" width="204" height="84" rx="14" fill="#ffffff" stroke="#4f9a55" stroke-width="1.5" opacity="1"/>
<g opacity="1" fill="#2a251b"><circle cx="676" cy="105.5" r="7.2"/><path d="M 664.3 128 v -5.4 a 11.700000000000001 9.9 0 0 1 23.400000000000002 0 v 5.4 z"/></g>
<path d="M 667.9 100.1 L 667.9 92.89999999999999 L 671.95 96.5 L 676 91.1 L 680.05 96.5 L 684.1 92.89999999999999 L 684.1 100.1 Z" fill="#d9922e"/>
<text x="704" y="100" font-size="12" font-weight="700" fill="#4f9a55" text-anchor="start" opacity="1">Owned:</text>
<text x="704" y="118" font-size="12" font-weight="500" fill="#2a251b" text-anchor="start" opacity="1">everyone sees it</text>
<rect x="636" y="168" width="204" height="84" rx="14" fill="#ffffff" stroke="#c8553d" stroke-width="1.5" opacity="1"/>
<g opacity="1" fill="#2a251b"><circle cx="676" cy="211.5" r="7.2"/><path d="M 664.3 234 v -5.4 a 11.700000000000001 9.9 0 0 1 23.400000000000002 0 v 5.4 z"/></g>
<circle cx="690" cy="196" r="8" fill="#c8553d"/><path d="M 687 193 l 6 6 M 693 193 l -6 6" fill="none" stroke="#fbf7ef" stroke-width="2" stroke-linecap="round"/>
<text x="704" y="206" font-size="12" font-weight="700" fill="#c8553d" text-anchor="start" opacity="1">Not owned:</text>
<text x="704" y="224" font-size="12" font-weight="500" fill="#2a251b" text-anchor="start" opacity="1">refused</text>
</svg>
