<svg xmlns="http://www.w3.org/2000/svg" viewBox="0 0 900 260" width="900" height="260" font-family="Inter, -apple-system, 'Segoe UI', Helvetica, Arial, sans-serif">
<rect x="0.5" y="0.5" width="899" height="259" rx="16" fill="#fbf7ef" stroke="#e6dcc8"/>
<rect x="30" y="30" width="192" height="200" rx="14" fill="#ffffff" stroke="#e6dcc8" stroke-width="1.5" opacity="1"/>
<circle cx="54" cy="60" r="11" fill="#d9922e"/>
<text x="54" y="64.5" font-size="12" font-weight="700" fill="#fbf7ef" text-anchor="middle" opacity="1">1</text>
<text x="74" y="65" font-size="15" font-weight="600" fill="#2a251b" text-anchor="start" opacity="1">Outcomes</text>
<rect x="246" y="30" width="192" height="200" rx="14" fill="#ffffff" stroke="#e6dcc8" stroke-width="1.5" opacity="1"/>
<circle cx="270" cy="60" r="11" fill="#d9922e"/>
<text x="270" y="64.5" font-size="12" font-weight="700" fill="#fbf7ef" text-anchor="middle" opacity="1">2</text>
<text x="290" y="65" font-size="15" font-weight="600" fill="#2a251b" text-anchor="start" opacity="1">Recorded once</text>
<line x1="224" y1="135" x2="236" y2="135" stroke="#8a806b" stroke-width="2.5" stroke-linecap="round" opacity="1"/>
<path d="M 233 129 L 242 135 L 233 141" fill="none" stroke="#8a806b" stroke-width="2.5" stroke-linecap="round" stroke-linejoin="round"/>
<rect x="462" y="30" width="192" height="200" rx="14" fill="#ffffff" stroke="#e6dcc8" stroke-width="1.5" opacity="1"/>
<circle cx="486" cy="60" r="11" fill="#d9922e"/>
<text x="486" y="64.5" font-size="12" font-weight="700" fill="#fbf7ef" text-anchor="middle" opacity="1">3</text>
<text x="506" y="65" font-size="15" font-weight="600" fill="#2a251b" text-anchor="start" opacity="1">Your result</text>
<line x1="440" y1="135" x2="452" y2="135" stroke="#8a806b" stroke-width="2.5" stroke-linecap="round" opacity="1"/>
<path d="M 449 129 L 458 135 L 449 141" fill="none" stroke="#8a806b" stroke-width="2.5" stroke-linecap="round" stroke-linejoin="round"/>
<rect x="678" y="30" width="192" height="200" rx="14" fill="#ffffff" stroke="#e6dcc8" stroke-width="1.5" opacity="1"/>
<circle cx="702" cy="60" r="11" fill="#d9922e"/>
<text x="702" y="64.5" font-size="12" font-weight="700" fill="#fbf7ef" text-anchor="middle" opacity="1">4</text>
<text x="722" y="65" font-size="15" font-weight="600" fill="#2a251b" text-anchor="start" opacity="1">Back to menu</text>
<line x1="656" y1="135" x2="668" y2="135" stroke="#8a806b" stroke-width="2.5" stroke-linecap="round" opacity="1"/>
<path d="M 665 129 L 674 135 L 665 141" fill="none" stroke="#8a806b" stroke-width="2.5" stroke-linecap="round" stroke-linejoin="round"/>
<rect x="56" y="92" width="46" height="72" rx="8" fill="#ffffff" stroke="#8a806b" stroke-width="2" opacity="1"/>
<rect x="63" y="103.0" width="32" height="12.666666666666668" rx="4" fill="#f6e3c4" opacity="1"/>
<circle cx="87" cy="109.33333333333333" r="3" fill="#d9922e"/>
<line x1="69" y1="109.33333333333333" x2="77" y2="109.33333333333333" stroke="#8a806b" stroke-width="2" stroke-linecap="round" opacity="1"/>
<rect x="63" y="121.66666666666667" width="32" height="12.666666666666668" rx="4" fill="#f6e3c4" opacity="1"/>
<circle cx="87" cy="128.0" r="3" fill="#d9922e"/>
<line x1="69" y1="128.0" x2="77" y2="128.0" stroke="#8a806b" stroke-width="2" stroke-linecap="round" opacity="1"/>
<rect x="63" y="140.33333333333334" width="32" height="12.666666666666668" rx="4" fill="#f6e3c4" opacity="1"/>
<circle cx="87" cy="146.66666666666669" r="3" fill="#d9922e"/>
<line x1="69" y1="146.66666666666669" x2="77" y2="146.66666666666669" stroke="#8a806b" stroke-width="2" stroke-linecap="round" opacity="1"/>
<rect x="143.43" y="94" width="33.14" height="24" rx="12" fill="#ffffff" stroke="#4f9a55" stroke-width="1.5" opacity="1"/>
<text x="160" y="110.5" font-size="11" font-weight="700" fill="#4f9a55" text-anchor="middle" opacity="1">Win</text>
<rect x="140.24" y="128" width="39.519999999999996" height="24" rx="12" fill="#ffffff" stroke="#c8553d" stroke-width="1.5" opacity="1"/>
<text x="160" y="144.5" font-size="11" font-weight="700" fill="#c8553d" text-anchor="middle" opacity="1">Loss</text>
<rect x="130.67000000000002" y="162" width="58.66" height="24" rx="12" fill="#ffffff" stroke="#8a806b" stroke-width="1.5" opacity="1"/>
<text x="160" y="178.5" font-size="11" font-weight="700" fill="#8a806b" text-anchor="middle" opacity="1">Abandon</text>
<text x="126" y="212" font-size="12" font-weight="500" fill="#8a806b" text-anchor="middle" opacity="1">for every player</text>
<rect x="286" y="88" width="112" height="92" rx="10" fill="#f6e3c4" opacity="1"/>
<line x1="302" y1="110" x2="374" y2="110" stroke="#d8cfbd" stroke-width="6" stroke-linecap="round" opacity="1"/>
<line x1="302" y1="130" x2="374" y2="130" stroke="#d8cfbd" stroke-width="6" stroke-linecap="round" opacity="1"/>
<line x1="302" y1="150" x2="374" y2="150" stroke="#d8cfbd" stroke-width="6" stroke-linecap="round" opacity="1"/>
<circle cx="396" cy="92" r="11" fill="#4f9a55"/><path d="M 392.5 92 l 2.5 2.6 l 4.5 -5" fill="none" stroke="#fbf7ef" stroke-width="2" stroke-linecap="round" stroke-linejoin="round"/>
<text x="342" y="212" font-size="12" font-weight="500" fill="#8a806b" text-anchor="middle" opacity="1">same result twice? still once</text>
<rect x="523" y="84" width="70" height="112" rx="12" fill="#ffffff" stroke="#8a806b" stroke-width="2" opacity="1"/>
<rect x="530" y="96" width="56" height="84" rx="6" fill="#f6e3c4" opacity="1"/>
<line x1="550.0" y1="188" x2="566.0" y2="188" stroke="#8a806b" stroke-width="2" stroke-linecap="round" opacity="1"/>
<text x="558" y="128" font-size="12" font-weight="700" fill="#d9922e" text-anchor="middle" opacity="1">You win!</text>
<rect x="538.24" y="144" width="39.519999999999996" height="24" rx="12" fill="#ffffff" stroke="#4f9a55" stroke-width="1.5" opacity="1"/>
<text x="558" y="160.5" font-size="11" font-weight="700" fill="#4f9a55" text-anchor="middle" opacity="1">▲ 15</text>
<text x="558" y="220" font-size="12" font-weight="500" fill="#8a806b" text-anchor="middle" opacity="1">only their own numbers</text>
<rect x="739" y="84" width="70" height="112" rx="12" fill="#ffffff" stroke="#8a806b" stroke-width="2" opacity="1"/>
<rect x="746" y="96" width="56" height="84" rx="6" fill="#f6e3c4" opacity="1"/>
<line x1="766.0" y1="188" x2="782.0" y2="188" stroke="#8a806b" stroke-width="2" stroke-linecap="round" opacity="1"/>
<rect x="750" y="132" width="48" height="24" rx="8" fill="#d9922e" opacity="1"/>
<text x="774" y="148" font-size="11" font-weight="700" fill="#fbf7ef" text-anchor="middle" opacity="1">Play</text>
<text x="774" y="220" font-size="12" font-weight="500" fill="#8a806b" text-anchor="middle" opacity="1">ready to play again</text>
</svg>
